<svg xmlns="http://www.w3.org/2000/svg" viewBox="0 0 45 45"><path fill="#008060" id="path-1" d="M34.5 36h-1a1.5 1.5 0 110-3h1a1.5 1.5 0 110 3zM38 9V7H7v23h8.829a1 1 0 011 1v1H21a1 1 0 011 1v1a1 1 0 01-1 1h-4.171A3.001 3.001 0 0114 33H5v4.5A1.5 1.5 0 006.5 39H21a1 1 0 011 1v1a1 1 0 01-1 1H6.5C4.02 42 2 39.99 2 38v-6c0-1.32.67-2 1.5-2H4V5.5A1.5 1.5 0 015.5 4h34A1.5 1.5 0 0141 5.5V9a1 1 0 01-1 1h-1a1 1 0 01-1-1zM28 39h12V16H28v23zm12.5 3h-13a2.503 2.503 0 01-2.5-2.5v-24c0-1.378 1.122-2.5 2.5-2.5h13c1.378 0 2.5 1.122 2.5 2.5v24c0 1.378-1.122 2.5-2.5 2.5z"></path></svg>